<?xml version="1.0" encoding="utf-8"?>
<!-- Generator: Adobe Illustrator 16.2.0, SVG Export Plug-In . SVG Version: 6.00 Build 0)  -->
<!DOCTYPE svg PUBLIC "-//W3C//DTD SVG 1.1//EN" "http://www.w3.org/Graphics/SVG/1.1/DTD/svg11.dtd">
<svg version="1.1" id="svg2" xmlns:svg="http://www.w3.org/2000/svg"
	 xmlns="http://www.w3.org/2000/svg" xmlns:xlink="http://www.w3.org/1999/xlink" x="0px" y="0px" width="500px" height="500px"
	 viewBox="0 0 500 500" enable-background="new 0 0 500 500" xml:space="preserve">
<title  id="title3840">Hotel is near mountain biking</title>
<path id="path13" stroke="#000000" stroke-width="18" d="M243.771,37.5H42.004c-9.579,0-17.344,7.765-17.344,17.344v403.533
	c0,9.578,7.766,17.346,17.344,17.346h403.534c9.579,0,17.345-7.768,17.345-17.346V54.844c0-9.579-7.766-17.344-17.345-17.344
	H243.771z"/>
<g>
	<path id="path101" fill="#FFFFFF" d="M171.464,305.611l-19.338,20.31l27.729,17.199c0.139,13.087,0.278,24.256,0.195,34.147
		c-0.083,9.779,0.723,19.421-0.583,24.421c-1.418,4.919-4.807,4.836-7.613,4.892c-2.917-0.055-7.446-1.5-9.196-5.086
		c-1.807-3.694-0.778-9.473-0.973-16.809c-0.195-7.418-0.195-16.42,0-27.313c-8.78-4.391-16.226-8.39-22.45-12.113
		c-6.307-3.779-11.615-6.558-14.837-10.17c-3.195-3.696-4.307-7.779-4.307-11.504c-0.083-3.722,1.223-6.695,3.917-10.752
		c2.695-4.25,6.946-8.586,12.114-14.059c5.167-5.529,13.558-14.671,18.533-18.532c4.861-3.945,7.307-4.724,10.752-4.696
		c3.473-0.055,6.696,2.501,9.558,4.891c2.723,2.417,3.862,4.64,6.834,9.558c2.917,4.835,6.362,11.169,10.559,19.337
		c7.974-0.778,13.948-0.778,18.338,0c4.278,0.695,6.751,2.085,7.417,4.475c0.639,2.332,0.055,7.779-3.889,9.585
		c-4.141,1.75-15.365,0.722-20.505,0.778c-5.167,0.026-7.835,0.306-10.364-0.778c-2.5-1.224-2.973-3.306-4.863-6.252
		C176.466,314.169,174.159,310.362,171.464,305.611L171.464,305.611z"/>
	<path id="path103" fill="#FFFFFF" d="M191.525,249.373c9.263,0,16.782,7.519,16.782,16.782s-7.519,16.782-16.782,16.782
		c-9.264,0-16.782-7.52-16.782-16.782S182.262,249.373,191.525,249.373"/>
	<path id="path105" fill="#FFFFFF" d="M109.532,346.733c25.92,0,46.957,21.035,46.957,46.955s-21.036,46.956-46.957,46.956
		c-25.92,0-46.956-21.036-46.956-46.956S83.612,346.733,109.532,346.733z M109.532,355.79c20.905,0,37.871,16.966,37.871,37.869
		s-16.966,37.869-37.871,37.869c-20.904,0-37.87-16.966-37.87-37.869S88.628,355.79,109.532,355.79z"/>
	<path id="path107" fill="#FFFFFF" d="M232.34,346.733c25.92,0,46.957,21.035,46.957,46.955s-21.037,46.956-46.957,46.956
		c-25.918,0-46.956-21.036-46.956-46.956S206.422,346.733,232.34,346.733z M232.34,355.79c20.905,0,37.869,16.966,37.869,37.869
		s-16.964,37.869-37.869,37.869c-20.903,0-37.87-16.966-37.87-37.869C194.471,372.756,211.437,355.79,232.34,355.79z"/>
</g>
<path fill="#FFFFFF" d="M235.474,99.76c1.107,1.162,1.569,2.901,1.187,4.46l-6.833,27.741l-0.083,0.409
	c-1.246,7.632-4.003,14.112-4.235,19.333c60.582,59.406,121.155,118.791,181.727,178.209c0.061,0.052,0.106,0.111,0.165,0.164
	c11.857,10.752,10.566,29.682-0.471,40.199l0.021,0.021c-0.06,0.066-0.126,0.119-0.184,0.183c-0.05,0.048-0.094,0.098-0.145,0.144
	l-0.02-0.021c-10.355,11.13-28.793,11.953-39.771,0.983c-0.05-0.048-0.097-0.096-0.143-0.144
	c-41.767-45.239-82.714-91.214-124.119-136.679c-0.006-0.008-0.015-0.014-0.021-0.021c-16.244-17.528-31.778-35.792-48.095-52.557
	c-15.307,1.777-31.008,5.27-46.931,7.693c-1.804,0.283-3.736-0.566-4.746-2.087l-39.383-59.062c-1.23-1.856-0.93-4.575,0.676-6.118
	l14.28-13.788c1.797-1.733,4.998-1.694,6.75,0.082c11.476,11.508,22.295,23.687,33.654,34.39c7.186-1.465,14.51-3.384,21.337-5.707
	c2.595-6.734,4.747-14.075,6.444-21.174c-10.646-12.052-22.66-23.527-34.042-35.679c-1.711-1.817-1.634-5.019,0.164-6.751
	l15.61-15.118c1.573-1.516,4.229-1.741,6.035-0.512l60.372,40.731C234.966,99.281,235.234,99.507,235.474,99.76L235.474,99.76z"/>
</svg>
