<?xml version="1.0" encoding="utf-8"?>
<!-- Generator: Adobe Illustrator 16.2.0, SVG Export Plug-In . SVG Version: 6.00 Build 0)  -->
<!DOCTYPE svg PUBLIC "-//W3C//DTD SVG 1.1//EN" "http://www.w3.org/Graphics/SVG/1.1/DTD/svg11.dtd">
<svg version="1.1" id="svg2" xmlns:svg="http://www.w3.org/2000/svg"
	 xmlns="http://www.w3.org/2000/svg" xmlns:xlink="http://www.w3.org/1999/xlink" x="0px" y="0px" width="500px" height="500px"
	 viewBox="0 0 500 500" enable-background="new 0 0 500 500" xml:space="preserve">
<title  id="title3840">Hotel is near mountain biking</title>
<path id="path13" fill="none" stroke="#000000" stroke-width="18" d="M243.771,37.5H42.004c-9.579,0-17.344,7.765-17.344,17.344
	v403.533c0,9.578,7.766,17.346,17.344,17.346h403.534c9.579,0,17.345-7.768,17.345-17.346V54.844
	c0-9.579-7.766-17.344-17.345-17.344H243.771z"/>
<g>
	<path d="M418.319,217.615H64.869c-11.815,0-21.393-9.578-21.393-21.393s9.578-21.392,21.393-21.392h353.45
		c11.815,0,21.393,9.577,21.393,21.392S430.135,217.615,418.319,217.615z"/>
	<path d="M418.319,322.118H64.869c-11.815,0-21.393-9.578-21.393-21.393s9.578-21.393,21.393-21.393h353.45
		c11.815,0,21.393,9.578,21.393,21.393S430.135,322.118,418.319,322.118z"/>
	<path d="M114.702,387.528c-5.719,0-11.423-2.278-15.635-6.787c-8.066-8.633-7.608-22.17,1.025-30.235l250.471-234.05
		c8.631-8.066,22.17-7.608,30.235,1.025c8.066,8.632,7.607,22.169-1.025,30.236l-250.47,234.048
		C125.179,385.62,119.934,387.528,114.702,387.528z"/>
</g>
</svg>
