<?xml version="1.0" encoding="utf-8"?>
<!-- Generator: Adobe Illustrator 16.2.0, SVG Export Plug-In . SVG Version: 6.00 Build 0)  -->
<!DOCTYPE svg PUBLIC "-//W3C//DTD SVG 1.1//EN" "http://www.w3.org/Graphics/SVG/1.1/DTD/svg11.dtd">
<svg version="1.1"
	 id="svg2" xmlns:inkscape="http://www.inkscape.org/namespaces/inkscape" xmlns:sodipodi="http://sodipodi.sourceforge.net/DTD/sodipodi-0.dtd" xmlns:rdf="http://www.w3.org/1999/02/22-rdf-syntax-ns#" xmlns:cc="http://creativecommons.org/ns#" xmlns:dc="http://purl.org/dc/elements/1.1/" xmlns:svg="http://www.w3.org/2000/svg" sodipodi:docname="bicycle_parking.svg" sodipodi:version="0.32" inkscape:output_extension="org.inkscape.output.svg.inkscape" inkscape:version="0.46"
	 xmlns="http://www.w3.org/2000/svg" xmlns:xlink="http://www.w3.org/1999/xlink" x="0px" y="0px" width="580px" height="580px"
	 viewBox="0 0 580 580" enable-background="new 0 0 580 580" xml:space="preserve">
<defs>
	
	
		<inkscape:perspective  sodipodi:type="inkscape:persp3d" inkscape:vp_x="0 : 290 : 1" inkscape:vp_y="0 : 1000 : 0" inkscape:vp_z="580 : 290 : 1" id="perspective24" inkscape:persp3d-origin="290 : 193.33333 : 1">
		</inkscape:perspective>
</defs>
<sodipodi:namedview  borderopacity="1.0" gridtolerance="10.0" objecttolerance="10.0" guidetolerance="10.0" bordercolor="#666666" pagecolor="#ffffff" inkscape:zoom="0.70710678" inkscape:cx="615.26172" inkscape:cy="415.25176" showgrid="false" id="base" inkscape:window-width="1400" inkscape:window-height="1003" inkscape:current-layer="svg2" inkscape:window-y="21" inkscape:window-x="193" inkscape:pageopacity="0.0" inkscape:pageshadow="2">
	</sodipodi:namedview>
<g id="g1327">
	<path id="path1329" fill="#111111" stroke="#EEEEEE" stroke-width="3.408" d="M66.275,1.768c-41.335,0-64.571,21.371-64.571,65.036
		v450.123c0,40.845,20.894,62.229,62.192,62.229H515.92c41.307,0,62.229-20.316,62.229-62.229V66.804
		c0-42.601-20.923-65.036-63.522-65.036C514.624,1.768,66.133,1.625,66.275,1.768z"/>
</g>
<path fill="#FFFFFF" d="M202.395,548.807c-42.503,0-77.082-34.579-77.082-77.082s34.579-77.082,77.082-77.082
	c8.639,0,16.953,1.43,24.713,4.063l24.749-45.961l-1.161-2.843c-0.388-0.026-0.771-0.063-1.146-0.108l-0.387-0.046
	c-27.906-3.302-33.082-21.831-33.684-32.582l-0.769-13.727h84.66c6.86,0,13.247,4.595,15.895,11.433
	c2.565,6.629,0.854,14.01-4.36,18.854c-2.032,1.932-5.89,5.35-33.874,11.889l1.465,3.587l119.934-0.606
	c-2.54-6.909-3.043-13.579-1.494-19.847l-21.072-0.043l-0.125-32.037c0-5.275,3.689-13.049,13.855-13.051l30.821,0
	c9.495-0.005,22.388-0.008,33.047,16.274l0.44,0.723c3.573,6.323,4.876,13.686,3.667,20.731l-0.021,0.12
	c-1.401,7.728-5.757,15.273-11.651,20.185c-0.491,0.409-0.979,0.789-1.46,1.143c1.139,3.224,2.55,7.228,4.018,12.134
	c3.075,10.278,6.773,23.027,9.997,34.171l1.777,6.144c5.41-1.208,11.033-1.845,16.803-1.845c42.503,0,77.082,34.579,77.082,77.082
	s-34.579,77.081-77.082,77.081s-77.082-34.578-77.082-77.081c0-19.381,7.191-37.116,19.044-50.675
	c-0.346-1.199-0.696-2.414-1.05-3.642l-73.19,49.665c0.288,1.579,0.438,3.203,0.438,4.858c0,12.021-7.899,22.356-19.114,26.729
	l0.391,25.552l-19.54,0.179l-0.685,1.594l-23.886-1.398l0.641-25.977l6.735-0.063l2.582-6.01c-2.458-2.261-4.515-4.898-6.061-7.813
	h-7.67C272.906,520.422,240.902,548.807,202.395,548.807z M202.395,420.643c-28.167,0-51.082,22.915-51.082,51.082
	s22.916,51.082,51.082,51.082c24.123,0,44.395-16.81,49.717-39.33h-70.65l33.051-61.382
	C210.627,421.146,206.569,420.643,202.395,420.643z M428.953,453.208c-1.944,5.396-3.004,11.21-3.004,17.269
	c0,28.166,22.915,51.081,51.082,51.081s51.082-22.915,51.082-51.081c0-28.167-22.915-51.082-51.082-51.082
	c-3.26,0-6.449,0.307-9.541,0.894c0.171,0.585,0.34,1.161,0.506,1.727c1.313,4.485,2.482,8.411,3.381,11.354
	c0.442,1.451,0.857,2.726,1.136,3.571c0.73,1.37,1.306,2.588,1.789,3.612c1.139,2.411,1.418,3.004,2.729,4.182
	c5.355,4.685,9.119,7.608,9.887,8.145l0.196,0.14c9.481,6.889,12.581,20.438,6.724,29.146c-5.358,8.136-16.086,11.655-26.161,8.554
	l-0.113-0.035c-3.421-1.085-11.432-3.628-20.311-10.98l-1.498-1.241l-0.146-0.221c-6.13-5.594-11.035-12.47-14.604-20.471
	l-0.621-0.949l-0.808-1.988C429.351,454.274,429.146,453.738,428.953,453.208z M278.156,457.477h8.321
	c1.409-2.552,3.211-4.883,5.334-6.926l-27.216-66.624l-14.636,27.181C264.362,422.435,274.647,438.777,278.156,457.477z
	 M224.991,457.477h26.463c-2.585-8.889-7.526-16.783-14.099-22.963L224.991,457.477z M453.543,444.739
	c0.036,0.058,0.07,0.115,0.104,0.172l6.657-3.373l-4.43-11.545c-2.294,0.881-4.202,2.339-5.615,4.145
	c0.652,2.183,1.182,3.928,1.572,5.208l0.477,1.571C452.886,442.831,453.188,443.82,453.543,444.739z M289.094,375.146l25.891,63.377
	l2.04-4.748l-0.221-14.682l28.102-0.587l64.711-31.112c-1.407-4.824-2.646-9.049-3.768-12.838L289.094,375.146z"/>
<g>
	<g>
		<path fill="#FFFFFF" d="M320.854,111.238c-7.485-15.306-17.367-27.206-29.646-35.701c-12.279-8.494-27.501-14.255-45.667-17.283
			c-12.952-2.354-31.707-3.532-56.264-3.532H49.756v369.875h48.946V274.225h94.866c52.311,0,88.474-10.891,108.491-32.673
			c20.016-21.782,30.023-48.4,30.023-79.854C332.082,143.365,328.339,126.544,320.854,111.238z M262.447,212.916
			c-13.288,11.774-35.742,17.662-67.365,17.662H99.459V98.371h94.614c22.201,0,37.424,1.093,45.666,3.28
			c12.783,3.533,23.086,10.807,30.907,21.824c7.821,11.018,11.731,24.263,11.731,39.737
			C282.378,184.574,275.735,201.142,262.447,212.916z"/>
	</g>
</g>
</svg>
