<?xml version="1.0" encoding="utf-8"?>
<!-- Generator: Adobe Illustrator 16.2.0, SVG Export Plug-In . SVG Version: 6.00 Build 0)  -->
<!DOCTYPE svg PUBLIC "-//W3C//DTD SVG 1.1//EN" "http://www.w3.org/Graphics/SVG/1.1/DTD/svg11.dtd">
<svg version="1.1"
	 id="svg2" xmlns:inkscape="http://www.inkscape.org/namespaces/inkscape" xmlns:sodipodi="http://sodipodi.sourceforge.net/DTD/sodipodi-0.dtd" xmlns:rdf="http://www.w3.org/1999/02/22-rdf-syntax-ns#" xmlns:cc="http://creativecommons.org/ns#" xmlns:dc="http://purl.org/dc/elements/1.1/" xmlns:svg="http://www.w3.org/2000/svg" sodipodi:docname="barrier_gate.svg" sodipodi:version="0.32" inkscape:output_extension="org.inkscape.output.svg.inkscape" inkscape:version="0.47 r22583"
	 xmlns="http://www.w3.org/2000/svg" xmlns:xlink="http://www.w3.org/1999/xlink" x="0px" y="0px" width="580px" height="580px"
	 viewBox="0 0 580 580" enable-background="new 0 0 580 580" xml:space="preserve">
<defs>
	
	
		<inkscape:perspective  sodipodi:type="inkscape:persp3d" inkscape:vp_x="0 : 290 : 1" inkscape:vp_y="0 : 1000 : 0" inkscape:vp_z="580 : 290 : 1" id="perspective24" inkscape:persp3d-origin="290 : 193.33333 : 1">
		</inkscape:perspective>
	
		<inkscape:perspective  sodipodi:type="inkscape:persp3d" inkscape:vp_x="0 : 306.58551 : 1" inkscape:vp_y="0 : 1000 : 0" inkscape:vp_z="612.164 : 306.58551 : 1" id="perspective2683" inkscape:persp3d-origin="306.082 : 204.39034 : 1">
		</inkscape:perspective>
	
		<inkscape:perspective  sodipodi:type="inkscape:persp3d" inkscape:vp_x="0 : 306.58551 : 1" inkscape:vp_y="0 : 1000 : 0" inkscape:vp_z="612.164 : 306.58551 : 1" id="perspective2953" inkscape:persp3d-origin="306.082 : 204.39034 : 1">
		</inkscape:perspective>
	
		<inkscape:perspective  sodipodi:type="inkscape:persp3d" inkscape:vp_x="0 : 245.89301 : 1" inkscape:vp_y="0 : 1000 : 0" inkscape:vp_z="361.87201 : 245.89301 : 1" id="perspective3071" inkscape:persp3d-origin="180.936 : 163.92867 : 1">
		</inkscape:perspective>
	
		<inkscape:perspective  sodipodi:type="inkscape:persp3d" inkscape:vp_x="0 : 0.5 : 1" inkscape:vp_y="0 : 1000 : 0" inkscape:vp_z="1 : 0.5 : 1" id="perspective3724" inkscape:persp3d-origin="0.5 : 0.33333333 : 1">
		</inkscape:perspective>
</defs>
<sodipodi:namedview  borderopacity="1.0" gridtolerance="10.0" objecttolerance="10.0" guidetolerance="10.0" bordercolor="#666666" pagecolor="#ffffff" inkscape:zoom="0.25" inkscape:cx="567.47232" inkscape:cy="93.77715" showgrid="false" id="base" inkscape:window-width="550" inkscape:window-height="481" inkscape:window-maximized="0" inkscape:current-layer="svg2" inkscape:window-y="116" inkscape:window-x="570" inkscape:pageopacity="0.0" inkscape:pageshadow="2">
	</sodipodi:namedview>
<g id="g1327">
	<path id="path1329" fill="#111111" stroke="#EEEEEE" stroke-width="3.408" d="M66.275,1.768c-41.335,0-64.571,21.371-64.571,65.036
		v450.123c0,40.845,20.894,62.229,62.192,62.229H515.92c41.307,0,62.229-20.316,62.229-62.229V66.804
		c0-42.601-20.923-65.036-63.522-65.036C514.624,1.768,66.133,1.625,66.275,1.768z"/>
</g>
<g>
	<path fill="#FFFFFF" d="M520.451,253.846H68.69c-15.101,0-27.343-12.241-27.343-27.342s12.242-27.342,27.343-27.342h451.761
		c15.101,0,27.343,12.241,27.343,27.342S535.552,253.846,520.451,253.846z"/>
	<path fill="#FFFFFF" d="M520.451,387.417H68.69c-15.101,0-27.343-12.242-27.343-27.343s12.242-27.343,27.343-27.343h451.761
		c15.101,0,27.343,12.242,27.343,27.343S535.552,387.417,520.451,387.417z"/>
	<path fill="#FFFFFF" d="M132.384,471.021c-7.31,0-14.6-2.913-19.984-8.675c-10.31-11.033-9.724-28.336,1.31-38.646l320.138-299.149
		c11.033-10.31,28.336-9.724,38.646,1.31c10.311,11.033,9.724,28.336-1.31,38.646L151.046,463.655
		C145.775,468.582,139.071,471.021,132.384,471.021z"/>
</g>
</svg>
