<?xml version="1.0" encoding="utf-8"?>
<!-- Generator: Adobe Illustrator 16.2.0, SVG Export Plug-In . SVG Version: 6.00 Build 0)  -->
<!DOCTYPE svg PUBLIC "-//W3C//DTD SVG 1.1//EN" "http://www.w3.org/Graphics/SVG/1.1/DTD/svg11.dtd">
<svg version="1.1"
	 id="svg2" xmlns:inkscape="http://www.inkscape.org/namespaces/inkscape" xmlns:sodipodi="http://sodipodi.sourceforge.net/DTD/sodipodi-0.dtd" xmlns:rdf="http://www.w3.org/1999/02/22-rdf-syntax-ns#" xmlns:cc="http://creativecommons.org/ns#" xmlns:dc="http://purl.org/dc/elements/1.1/" xmlns:svg="http://www.w3.org/2000/svg" sodipodi:docname="amenity_camping.svg" sodipodi:version="0.32" inkscape:output_extension="org.inkscape.output.svg.inkscape" inkscape:version="0.46" sodipodi:docbase="s:\Data\FacilityIcons"
	 xmlns="http://www.w3.org/2000/svg" xmlns:xlink="http://www.w3.org/1999/xlink" x="0px" y="0px" width="580px" height="580px"
	 viewBox="0 0 580 580" enable-background="new 0 0 580 580" xml:space="preserve">
<sodipodi:namedview  borderopacity="1.0" gridtolerance="10.0" objecttolerance="10.0" guidetolerance="10.0" bordercolor="#666666" pagecolor="#ffffff" inkscape:zoom="0.65172414" inkscape:cx="209.39659" inkscape:cy="290" showgrid="false" id="base" inkscape:window-width="853" inkscape:window-height="675" inkscape:current-layer="svg2" inkscape:window-y="88" inkscape:window-x="91" inkscape:pageopacity="0.0" inkscape:pageshadow="2">
	</sodipodi:namedview>
<defs>
	
	
		<inkscape:perspective  sodipodi:type="inkscape:persp3d" inkscape:vp_x="0 : 290 : 1" inkscape:vp_y="0 : 1000 : 0" inkscape:vp_z="580 : 290 : 1" id="perspective2441" inkscape:persp3d-origin="290 : 193.33333 : 1">
		</inkscape:perspective>
</defs>
<g id="g1327">
	<path id="path1329" fill="#111111" stroke="#EEEEEE" stroke-width="3.408" d="M66.275,1.768c-41.335,0-64.571,21.371-64.571,65.036
		v450.123c0,40.845,20.895,62.229,62.192,62.229H515.92c41.307,0,62.229-20.315,62.229-62.229V66.804
		c0-42.601-20.923-65.036-63.521-65.036C514.624,1.768,66.133,1.625,66.275,1.768z"/>
</g>
<g>
	<g>
		<g>
			<path fill="#FFFFFF" d="M84.819,500.95l22.187,11.744l182.636-345.029l181.909,345.01l23.246-12.256l-0.1-0.189L304.525,139.548
				l35.603-67.259l-23.227-12.295l-27.214,51.412l-28.368-53.804l-23.246,12.257l36.007,68.292
				c-15.495,32.074-121.491,230.255-192.826,362.816L70.813,520.37l94.237-0.156l-90.749-0.7L84.819,500.95z"/>
			<polygon fill="#FFFFFF" points="504.911,519.52 483.233,519.687 504.98,519.65 			"/>
			<path fill="#FFFFFF" d="M377.65,493.582l-175.522,0.29c-5.64,11.2-9.314,18.227-9.944,19.427l-3.608,6.876l202.599-0.336
				l-3.433-6.54C387.106,512.089,383.374,504.953,377.65,493.582z"/>
			<path fill="#FFFFFF" d="M505.624,519.514l-10.927-19.284l0.1,0.189l-23.246,12.256l-181.909-345.01L107.006,512.694
				L84.819,500.95l-10.519,18.563l90.749,0.7l23.41,0.181l0.115-0.22l3.608-6.876c0.63-1.2,4.305-8.227,9.944-19.427
				c20.297-40.308,66.126-134.848,87.834-208.013c21.655,72.987,67.317,167.251,87.688,207.723
				c5.724,11.371,9.456,18.507,10.091,19.717l3.433,6.54l0.291,0.556l91.769-0.708l21.678-0.167L505.624,519.514z"/>
		</g>
	</g>
</g>
</svg>
