<?xml version="1.0" encoding="utf-8"?>
<!-- Generator: Adobe Illustrator 16.2.0, SVG Export Plug-In . SVG Version: 6.00 Build 0)  -->
<!DOCTYPE svg PUBLIC "-//W3C//DTD SVG 1.1//EN" "http://www.w3.org/Graphics/SVG/1.1/DTD/svg11.dtd">
<svg version="1.1" id="svg2" xmlns:svg="http://www.w3.org/2000/svg"
	 xmlns="http://www.w3.org/2000/svg" xmlns:xlink="http://www.w3.org/1999/xlink" x="0px" y="0px" width="500px" height="500px"
	 viewBox="0 0 500 500" enable-background="new 0 0 500 500" xml:space="preserve">
<title  id="title3840">Hotel is near mountain biking</title>
<g>
	
		<path id="path1061_1_" sodipodi:end="6.2864724" sodipodi:cy="388.72183" sodipodi:rx="11.516535" sodipodi:start="0.014158001" sodipodi:open="true" sodipodi:cx="346.93561" sodipodi:ry="11.516535" sodipodi:type="arc" d="
		M265.496,144.369c-0.141,8.267-8.331,14.874-18.292,14.756c-9.959-0.117-17.92-6.914-17.778-15.182
		c0.142-8.267,8.331-14.874,18.292-14.757c9.883,0.118,17.812,6.815,17.781,15.02"/>
	<path d="M247.465,159.588c-0.089,0-0.176,0-0.266-0.001c-5.502-0.065-10.648-2.149-14.115-5.718
		c-2.717-2.797-4.18-6.324-4.118-9.933c0.145-8.433,8.416-15.211,18.492-15.211c0.088,0,0.176,0,0.266,0.001
		c10.09,0.119,18.271,7.064,18.236,15.482c0,0.028-0.004,0.058-0.009,0.084c0.004,0.028,0.007,0.055,0.006,0.084
		C265.813,152.81,257.542,159.588,247.465,159.588z M247.458,129.647c-9.578,0-17.435,6.374-17.57,14.305
		c-0.058,3.361,1.312,6.655,3.857,9.274c3.297,3.394,8.206,5.376,13.466,5.438c9.686,0.148,17.689-6.302,17.825-14.303
		c0.001-0.027,0.004-0.054,0.009-0.08c-0.005-0.025-0.007-0.051-0.007-0.077c0.032-7.914-7.74-14.444-17.324-14.556
		C247.627,129.647,247.542,129.647,247.458,129.647z"/>
</g>
<path d="M158.179,441.845c-1.523,0-3.061-0.476-4.375-1.459c-3.229-2.42-3.886-6.999-1.466-10.229
	c39.535-52.772,60.949-120.151,71.95-167.384c12.687-54.465,15.433-97.339,15.433-105.032v-0.679c0-4.036,3.272-7.307,7.306-7.307
	s7.307,3.271,7.307,7.307v0.679c0,8.027-2.814,52.537-15.814,108.348c-11.319,48.597-33.43,118.027-74.487,172.831
	C162.597,440.833,160.402,441.845,158.179,441.845z"/>
<path d="M335.659,441.506c-2.224,0-4.417-1.01-5.854-2.927c-41.057-54.803-63.167-124.234-74.487-172.829
	c-12.999-55.813-15.814-100.322-15.814-108.35v-0.679c0-4.035,3.271-7.307,7.307-7.307c4.035,0,7.307,3.272,7.307,7.307v0.679
	c0,7.695,2.746,50.567,15.433,105.034c11.001,47.23,32.414,114.609,71.949,167.383c2.421,3.23,1.764,7.811-1.467,10.229
	C338.721,441.029,337.183,441.506,335.659,441.506z"/>
<path d="M328.559,236.326c-1.55,0-3.062-0.781-3.932-2.198c-1.334-2.169-0.654-5.009,1.516-6.341
	c7.461-4.583,14.292-9.973,20.302-16.019c19.625-19.739,29.604-45.116,28.102-71.457c-1.532-26.836-14.732-51.492-37.17-69.425
	c-1.988-1.59-2.313-4.49-0.723-6.48c1.591-1.989,4.49-2.313,6.481-0.723c24.508,19.59,38.933,46.618,40.616,76.104
	c1.655,28.989-9.271,56.861-30.767,78.481c-6.524,6.564-13.932,12.41-22.017,17.375
	C330.215,236.105,329.381,236.326,328.559,236.326z"/>
<path d="M301.103,207.377c-1.638,0-3.225-0.876-4.058-2.417c-1.212-2.239-0.38-5.037,1.859-6.249
	c7.178-3.885,13.448-8.837,18.638-14.72c11.232-12.731,16.391-28.603,14.524-44.69c-1.941-16.722-11.148-31.703-25.928-42.184
	c-2.075-1.473-2.565-4.351-1.092-6.428c1.474-2.078,4.35-2.566,6.427-1.093c16.941,12.015,27.507,29.29,29.753,48.643
	c2.171,18.719-3.786,37.134-16.77,51.853c-5.908,6.698-13.028,12.326-21.163,16.729
	C302.596,207.197,301.844,207.377,301.103,207.377z"/>
<path d="M282.062,175.034c-1.69,0-3.317-0.933-4.126-2.546c-1.141-2.276-0.22-5.047,2.057-6.188
	c3.383-1.693,6.328-3.844,8.756-6.393c5.066-5.315,7.436-11.899,6.674-18.54c-0.819-7.142-5.085-13.578-12.009-18.125
	c-2.13-1.397-2.723-4.255-1.325-6.383c1.398-2.129,4.257-2.722,6.384-1.324c9.253,6.074,14.975,14.875,16.111,24.781
	c1.08,9.405-2.174,18.622-9.159,25.952c-3.163,3.32-6.966,6.104-11.301,8.277C283.46,174.876,282.756,175.034,282.062,175.034z"/>
<path d="M169.053,236.486c-0.823,0-1.656-0.22-2.408-0.682c-8.083-4.965-15.49-10.81-22.017-17.375
	c-21.494-21.621-32.42-49.494-30.767-78.482c1.683-29.485,16.107-56.513,40.617-76.102c1.989-1.59,4.89-1.266,6.48,0.723
	c1.589,1.989,1.266,4.89-0.723,6.48c-22.437,17.933-35.637,42.588-37.168,69.425c-1.504,26.339,8.476,51.716,28.1,71.455
	c6.012,6.047,12.843,11.438,20.304,16.02c2.169,1.333,2.848,4.172,1.515,6.341C172.115,235.705,170.602,236.486,169.053,236.486z"/>
<path d="M196.51,207.536c-0.741,0-1.493-0.179-2.19-0.556c-8.135-4.403-15.255-10.032-21.163-16.729
	c-12.985-14.718-18.94-33.133-16.769-51.854c2.246-19.353,12.812-36.628,29.752-48.642c2.077-1.473,4.955-0.983,6.428,1.093
	c1.473,2.077,0.983,4.955-1.093,6.428c-14.778,10.481-23.986,25.464-25.926,42.185c-1.866,16.086,3.292,31.958,14.525,44.691
	c5.188,5.881,11.458,10.833,18.637,14.719c2.24,1.212,3.073,4.01,1.86,6.249C199.734,206.661,198.147,207.536,196.51,207.536z"/>
<path d="M215.557,175.182c-0.694,0-1.399-0.157-2.062-0.49c-4.334-2.171-8.136-4.956-11.3-8.275
	c-6.986-7.331-10.238-16.547-9.16-25.953c1.137-9.906,6.858-18.708,16.111-24.782c2.129-1.398,4.986-0.804,6.384,1.324
	c1.398,2.128,0.805,4.987-1.324,6.384c-6.925,4.547-11.191,10.984-12.01,18.126c-0.762,6.639,1.608,13.224,6.673,18.539
	c2.429,2.548,5.375,4.7,8.756,6.395c2.276,1.14,3.197,3.91,2.057,6.187C218.875,174.249,217.247,175.182,215.557,175.182z"/>
<path d="M215.161,320.622c-1.243,0-2.482-0.498-3.393-1.483c-1.734-1.872-1.621-4.796,0.252-6.531l50.535-46.779
	c1.874-1.734,4.799-1.62,6.533,0.252c1.734,1.873,1.619,4.797-0.253,6.532l-50.537,46.779
	C217.41,320.215,216.284,320.622,215.161,320.622z"/>
<path d="M278.997,320.622c-1.122,0-2.25-0.407-3.139-1.23l-50.535-46.779c-1.873-1.735-1.986-4.658-0.252-6.532
	c1.734-1.874,4.657-1.986,6.531-0.252l50.536,46.779c1.873,1.735,1.985,4.659,0.253,6.531
	C281.479,320.125,280.24,320.622,278.997,320.622z"/>
<path d="M304.24,394.781c-1.383,0-2.768-0.5-3.861-1.515l-79.106-73.226c-2.306-2.134-2.444-5.733-0.31-8.038
	c2.135-2.306,5.732-2.443,8.039-0.31l79.104,73.226c2.306,2.134,2.445,5.733,0.311,8.039
	C307.295,394.169,305.77,394.781,304.24,394.781z"/>
<path d="M189.665,394.781c-1.53,0-3.056-0.612-4.177-1.823c-2.134-2.306-1.996-5.905,0.31-8.039l79.105-73.226
	c2.306-2.137,5.904-1.996,8.038,0.31c2.135,2.305,1.995,5.904-0.31,8.038l-79.104,73.226
	C192.433,394.281,191.047,394.781,189.665,394.781z"/>
</svg>
