<?xml version="1.0" encoding="utf-8"?>
<!-- Generator: Adobe Illustrator 16.2.0, SVG Export Plug-In . SVG Version: 6.00 Build 0)  -->
<!DOCTYPE svg PUBLIC "-//W3C//DTD SVG 1.1//EN" "http://www.w3.org/Graphics/SVG/1.1/DTD/svg11.dtd">
<svg version="1.1" id="svg2" xmlns:svg="http://www.w3.org/2000/svg"
	 xmlns="http://www.w3.org/2000/svg" xmlns:xlink="http://www.w3.org/1999/xlink" x="0px" y="0px" width="500px" height="500px"
	 viewBox="0 0 500 500" enable-background="new 0 0 500 500" xml:space="preserve">
<title  id="title3840">Hotel is near mountain biking</title>
<path id="path13" fill="none" stroke="#000000" stroke-width="18" d="M243.771,37.5H42.004c-9.579,0-17.344,7.765-17.344,17.344
	v403.533c0,9.578,7.766,17.346,17.344,17.346h403.534c9.579,0,17.345-7.768,17.345-17.346V54.844
	c0-9.579-7.766-17.344-17.345-17.344H243.771z"/>
<path id="flowRoot6828" d="M210.938,89.609c0-11.222,3.636-20.417,10.91-27.588c7.274-7.169,16.625-10.753,28.056-10.754
	c12.262,0,22.444,3.793,30.549,11.378c8.105,7.585,12.157,16.158,12.157,25.717c0,7.066-1.61,14.132-4.832,21.197
	c-3.221,7.067-8.313,12.73-15.274,16.99c-6.962,4.26-14.08,6.391-21.353,6.391c-9.976,0-19.171-4.261-27.588-12.781
	C215.146,111.638,210.938,101.455,210.938,89.609L210.938,89.609z M167.295,461.5l-0.624-20.263l35.225-4.675
	c5.196-1.455,8.78-3.586,10.754-6.392c1.975-2.805,2.961-9.091,2.961-18.86v-3.429c0-2.493,0.156-7.013,0.468-13.559
	c0.312-6.547,0.468-12.314,0.468-17.302c0-3.948-0.312-11.534-0.936-22.756l0.312-15.586l-0.312-14.652l0.624-50.811
	c0-6.442-0.624-13.092-1.871-19.951c-2.285-3.117-6.442-5.819-12.469-8.104c-6.026-2.286-16.521-3.948-31.484-4.988v-17.457
	c21.405-1.247,40.213-5.715,56.423-13.405c11.014-4.987,22.964-13.819,35.848-26.496h20.887
	c0.831,25.769,1.247,59.228,1.247,100.375l-2.183,127.185c0,8.729,0.415,16.626,1.247,23.692c6.442,2.286,16.938,4.571,31.484,6.856
	c5.61,0.832,10.078,1.871,13.404,3.118l-0.312,17.146c-5.611,0.208-9.768,0.312-12.47,0.312c-3.118,0-7.896-0.208-14.34-0.624
	c-21.197-1.038-49.564-1.559-85.101-1.559c-10.183,0-20.055,0.364-29.614,1.092C177.375,461.136,170.828,461.5,167.295,461.5
	L167.295,461.5z"/>
</svg>
