<?xml version="1.0" encoding="utf-8"?>
<!-- Generator: Adobe Illustrator 16.2.0, SVG Export Plug-In . SVG Version: 6.00 Build 0)  -->
<!DOCTYPE svg PUBLIC "-//W3C//DTD SVG 1.1//EN" "http://www.w3.org/Graphics/SVG/1.1/DTD/svg11.dtd">
<svg version="1.1" id="svg2" xmlns:svg="http://www.w3.org/2000/svg"
	 xmlns="http://www.w3.org/2000/svg" xmlns:xlink="http://www.w3.org/1999/xlink" x="0px" y="0px" width="500px" height="500px"
	 viewBox="0 0 500 500" enable-background="new 0 0 500 500" xml:space="preserve">
<title  id="title3840">Hotel is near mountain biking</title>
<g>
	<path id="path13" fill="none" stroke="#000000" stroke-width="18" d="M243.771,37.5H42.004c-9.579,0-17.344,7.765-17.344,17.344
		v403.533c0,9.578,7.766,17.346,17.344,17.346h403.534c9.579,0,17.345-7.768,17.345-17.346V54.844
		c0-9.579-7.766-17.344-17.345-17.344H243.771z"/>
	<g id="g3059" transform="matrix(1.0845117,0,0,1.0845093,-19.756406,-0.73036567)">
		<path id="path101" d="M217.001,232.021l-25.056,26.315l35.929,22.285c0.18,16.955,0.36,31.428,0.252,44.243
			c-0.108,12.672,0.937,25.164-0.756,31.643c-1.837,6.373-6.228,6.266-9.864,6.337c-3.779-0.07-9.648-1.943-11.916-6.589
			c-2.34-4.787-1.008-12.274-1.26-21.779c-0.252-9.611-0.252-21.275,0-35.389c-11.376-5.688-21.023-10.87-29.088-15.695
			c-8.172-4.896-15.049-8.496-19.225-13.176c-4.14-4.79-5.58-10.08-5.58-14.905c-0.107-4.824,1.584-8.676,5.076-13.932
			c3.492-5.507,9-11.125,15.696-18.216c6.696-7.164,17.567-19.008,24.013-24.012c6.299-5.112,9.467-6.12,13.932-6.084
			c4.5-0.072,8.676,3.24,12.384,6.336c3.528,3.132,5.004,6.012,8.856,12.384c3.779,6.264,8.243,14.472,13.68,25.055
			c10.332-1.009,18.072-1.009,23.76,0c5.543,0.9,8.747,2.701,9.611,5.797c0.828,3.022,0.072,10.08-5.039,12.419
			c-5.365,2.268-19.908,0.936-26.568,1.009c-6.695,0.034-10.152,0.396-13.428-1.009c-3.24-1.584-3.852-4.283-6.301-8.1
			C223.482,243.109,220.493,238.176,217.001,232.021L217.001,232.021z"/>
		<path id="path103" d="M242.993,159.153c12.003,0,21.744,9.742,21.744,21.744c0,12.002-9.741,21.744-21.744,21.744
			s-21.744-9.742-21.744-21.744C221.249,168.895,230.991,159.153,242.993,159.153"/>
		<path id="path105" d="M136.757,285.301c33.584,0,60.84,27.256,60.84,60.84s-27.256,60.84-60.84,60.84s-60.84-27.256-60.84-60.84
			S103.173,285.301,136.757,285.301z M136.757,297.036c27.086,0,49.068,21.982,49.068,49.066c0,27.086-21.982,49.068-49.068,49.068
			s-49.068-21.982-49.068-49.068C87.689,319.019,109.671,297.036,136.757,297.036z"/>
		<path id="path107" d="M295.876,285.301c33.584,0,60.842,27.256,60.842,60.84s-27.258,60.84-60.842,60.84
			c-33.582,0-60.839-27.256-60.839-60.84S262.294,285.301,295.876,285.301z M295.876,297.036c27.086,0,49.067,21.982,49.067,49.066
			c0,27.086-21.981,49.068-49.067,49.068c-27.084,0-49.067-21.982-49.067-49.068C246.81,319.019,268.792,297.036,295.876,297.036z"
			/>
		<path id="path111" d="M234.245,122.653c2.699-2.268,8.964-8.712,19.225-20.016c10.223-11.34,23.902-26.855,41.615-47.232
			c11.592,18.18,20.123,31.428,26.424,40.032c6.156,8.568,9.576,12.204,10.404,11.196c6.553-6.48,12.061-11.988,16.813-16.812
			c4.681-4.824,8.314-8.82,11.195-11.988c14.4,20.016,26.352,36.504,36.828,50.436c10.295,13.824,18.469,24.3,24.805,32.004
			l-39.205-36.036c-3.24,9.288-8.531,13.968-16.02,14.436c-7.632,0.288-19.369-10.152-28.8-12.024
			c-9.467-1.908-18.829,3.96-27.253,0.792c-8.496-3.384-15.156-16.524-23.184-19.98c-8.1-3.384-16.198-3.384-24.84,0
			C252.929,112.5,243.605,117.576,234.245,122.653L234.245,122.653z"/>
		<path id="path113" fill="#FFFFFF" d="M275.07,94.645l18.396-23.22l32.039,46.44c-7.668-0.288-14.291-1.944-20.016-4.824
			c-5.832-2.988-9.289-9.756-14.399-12.816C285.906,97.165,280.757,95.257,275.07,94.645z"/>
		<path id="path115" fill="#FFFFFF" d="M335.909,118.656l23.221-24.84l17.604,24.84c-5.473,5.94-10.584,8.964-16.02,9.612
			c-5.4,0.504-11.882-4.824-15.984-6.408C340.517,120.168,337.708,119.232,335.909,118.656z"/>
	</g>
</g>
</svg>
