<?xml version="1.0" encoding="utf-8"?>
<!-- Generator: Adobe Illustrator 16.2.0, SVG Export Plug-In . SVG Version: 6.00 Build 0)  -->
<!DOCTYPE svg PUBLIC "-//W3C//DTD SVG 1.1//EN" "http://www.w3.org/Graphics/SVG/1.1/DTD/svg11.dtd">
<svg version="1.1" id="svg2" xmlns:svg="http://www.w3.org/2000/svg"
	 xmlns="http://www.w3.org/2000/svg" xmlns:xlink="http://www.w3.org/1999/xlink" x="0px" y="0px" width="500px" height="500px"
	 viewBox="0 0 500 500" enable-background="new 0 0 500 500" xml:space="preserve">
<title  id="title3840">Hotel is near mountain biking</title>
<path id="path13" fill="none" stroke="#000000" stroke-width="18" d="M243.771,37.5H42.004c-9.579,0-17.344,7.765-17.344,17.344
	v403.533c0,9.578,7.766,17.346,17.344,17.346h403.534c9.579,0,17.345-7.768,17.345-17.346V54.844
	c0-9.579-7.766-17.344-17.345-17.344H243.771z"/>
<path id="path101" d="M348.379,335.036l-17.646,18.533l25.303,15.693c0.127,11.941,0.253,22.134,0.178,31.159
	c-0.076,8.923,0.659,17.721-0.532,22.283c-1.294,4.488-4.387,4.413-6.947,4.464c-2.661-0.05-6.794-1.369-8.391-4.642
	c-1.649-3.371-0.711-8.644-0.888-15.337c-0.178-6.769-0.178-14.982,0-24.922c-8.013-4.006-14.806-7.655-20.486-11.054
	c-5.755-3.448-10.599-5.983-13.539-9.279c-2.915-3.373-3.929-7.099-3.929-10.497c-0.076-3.396,1.115-6.109,3.574-9.812
	c2.459-3.878,6.338-7.834,11.054-12.828c4.716-5.045,12.372-13.387,16.911-16.91c4.436-3.601,6.667-4.311,9.813-4.284
	c3.169-0.051,6.108,2.281,8.721,4.461c2.484,2.206,3.524,4.234,6.236,8.723c2.662,4.411,5.806,10.19,9.635,17.644
	c7.276-0.71,12.727-0.71,16.733,0c3.903,0.635,6.16,1.903,6.768,4.083c0.583,2.128,0.051,7.099-3.549,8.746
	c-3.778,1.597-14.021,0.659-18.711,0.71c-4.714,0.024-7.149,0.279-9.456-0.71c-2.281-1.116-2.713-3.017-4.438-5.705
	C352.943,342.846,350.839,339.372,348.379,335.036L348.379,335.036z"/>
<path id="path103" d="M366.684,283.72c8.453,0,15.313,6.861,15.313,15.313s-6.859,15.313-15.313,15.313s-15.313-6.86-15.313-15.313
	S358.231,283.72,366.684,283.72"/>
<path id="path105" d="M291.867,372.56c23.651,0,42.847,19.194,42.847,42.845c0,23.652-19.195,42.848-42.847,42.848
	s-42.846-19.195-42.846-42.848C249.021,391.754,268.216,372.56,291.867,372.56z M291.867,380.824
	c19.075,0,34.557,15.48,34.557,34.554c0,19.075-15.481,34.557-34.557,34.557s-34.557-15.481-34.557-34.557
	C257.311,396.305,272.792,380.824,291.867,380.824z"/>
<path id="path107" d="M403.927,372.56c23.651,0,42.848,19.194,42.848,42.845c0,23.652-19.196,42.848-42.848,42.848
	c-23.649,0-42.846-19.195-42.846-42.848C361.081,391.754,380.277,372.56,403.927,372.56z M403.927,380.824
	c19.075,0,34.555,15.48,34.555,34.554c0,19.075-15.479,34.557-34.555,34.557c-19.074,0-34.557-15.481-34.557-34.557
	C369.372,396.305,384.853,380.824,403.927,380.824z"/>
<g>
	<path id="path111" d="M319.437,95.973c1.842-1.548,6.119-5.946,13.123-13.662c6.978-7.741,16.314-18.331,28.405-32.24
		c7.913,12.409,13.736,21.452,18.037,27.325c4.202,5.849,6.536,8.331,7.102,7.642c4.474-4.423,8.232-8.183,11.477-11.476
		c3.195-3.292,5.675-6.02,7.642-8.183c9.829,13.663,17.987,24.917,25.138,34.427c7.027,9.437,12.607,16.587,16.932,21.846
		L420.53,97.055c-2.212,6.34-5.823,9.534-10.936,9.854c-5.209,0.197-13.221-6.929-19.658-8.208
		c-6.462-1.302-12.852,2.704-18.603,0.541c-5.799-2.31-10.345-11.279-15.825-13.638c-5.528-2.31-11.057-2.31-16.955,0
		C332.189,89.043,325.826,92.508,319.437,95.973L319.437,95.973z"/>
	<path id="path113" fill="#FFFFFF" d="M347.304,76.855l12.556-15.85l21.87,31.699c-5.234-0.196-9.755-1.327-13.663-3.292
		c-3.98-2.04-6.34-6.66-9.828-8.748C354.7,78.576,351.186,77.273,347.304,76.855z"/>
	<path id="path115" fill="#FFFFFF" d="M388.831,93.245l15.851-16.956l12.017,16.956c-3.736,4.054-7.225,6.119-10.936,6.561
		c-3.686,0.344-8.11-3.293-10.91-4.374C391.977,94.277,390.06,93.638,388.831,93.245z"/>
</g>
<g>
	<g>
		<path d="M317.682,145.401c-6.979-14.271-16.193-25.367-27.643-33.288c-11.448-7.92-25.642-13.292-42.579-16.115
			c-12.077-2.195-29.564-3.293-52.461-3.293H64.906V437.58h45.638V297.371h88.454c48.775,0.002,82.494-10.154,101.157-30.463
			c18.663-20.311,27.994-45.129,27.994-74.458C328.149,175.357,324.66,159.672,317.682,145.401z M263.222,240.207
			c-12.391,10.977-33.326,16.467-62.812,16.467H111.25V133.403h88.22c20.701,0,34.894,1.02,42.579,3.058
			c11.919,3.294,21.526,10.077,28.817,20.349c7.294,10.273,10.94,22.624,10.94,37.052
			C281.807,213.781,275.61,229.228,263.222,240.207z"/>
	</g>
</g>
</svg>
