<?xml version="1.0" encoding="utf-8"?>
<!-- Generator: Adobe Illustrator 16.2.0, SVG Export Plug-In . SVG Version: 6.00 Build 0)  -->
<!DOCTYPE svg PUBLIC "-//W3C//DTD SVG 1.1//EN" "http://www.w3.org/Graphics/SVG/1.1/DTD/svg11.dtd">
<svg version="1.1"
	 id="svg2" xmlns:inkscape="http://www.inkscape.org/namespaces/inkscape" xmlns:sodipodi="http://sodipodi.sourceforge.net/DTD/sodipodi-0.dtd" xmlns:rdf="http://www.w3.org/1999/02/22-rdf-syntax-ns#" xmlns:cc="http://creativecommons.org/ns#" xmlns:dc="http://purl.org/dc/elements/1.1/" xmlns:svg="http://www.w3.org/2000/svg" sodipodi:docname="tower_communications.svg" sodipodi:version="0.32" inkscape:output_extension="org.inkscape.output.svg.inkscape" inkscape:version="0.46"
	 xmlns="http://www.w3.org/2000/svg" xmlns:xlink="http://www.w3.org/1999/xlink" x="0px" y="0px" width="580px" height="580px"
	 viewBox="0 0 580 580" enable-background="new 0 0 580 580" xml:space="preserve">
<sodipodi:namedview  borderopacity="1.0" gridtolerance="10.0" objecttolerance="10.0" guidetolerance="10.0" bordercolor="#666666" pagecolor="#ffffff" inkscape:zoom="0.70710678" inkscape:cx="191.9039" inkscape:cy="259.98847" showgrid="false" id="base" inkscape:window-width="1014" inkscape:window-height="711" inkscape:current-layer="svg2" inkscape:window-y="1" inkscape:window-x="1" inkscape:pageopacity="0.0" inkscape:pageshadow="2">
	</sodipodi:namedview>
<defs>
	
	
		<inkscape:perspective  sodipodi:type="inkscape:persp3d" inkscape:vp_x="0 : 290 : 1" inkscape:vp_y="0 : 1000 : 0" inkscape:vp_z="580 : 290 : 1" id="perspective12" inkscape:persp3d-origin="290 : 193.33333 : 1">
		</inkscape:perspective>
	
		<inkscape:perspective  sodipodi:type="inkscape:persp3d" inkscape:vp_x="0 : 29.116032 : 1" inkscape:vp_y="0 : 1000 : 0" inkscape:vp_z="58.232063 : 29.116032 : 1" id="perspective6807" inkscape:persp3d-origin="29.116032 : 19.410688 : 1">
		</inkscape:perspective>
	
		<inkscape:perspective  sodipodi:type="inkscape:persp3d" inkscape:vp_x="0 : 290 : 1" inkscape:vp_y="0 : 1000 : 0" inkscape:vp_z="580 : 290 : 1" id="perspective6954" inkscape:persp3d-origin="290 : 193.33333 : 1">
		</inkscape:perspective>
	
		<inkscape:perspective  sodipodi:type="inkscape:persp3d" inkscape:vp_x="0 : 240 : 1" inkscape:vp_y="0 : 1000 : 0" inkscape:vp_z="480 : 240 : 1" id="perspective2541" inkscape:persp3d-origin="240 : 160 : 1">
		</inkscape:perspective>
	
		<inkscape:perspective  sodipodi:type="inkscape:persp3d" inkscape:vp_x="0 : 215 : 1" inkscape:vp_y="0 : 1000 : 0" inkscape:vp_z="430 : 215 : 1" id="perspective2750" inkscape:persp3d-origin="215 : 143.33333 : 1">
		</inkscape:perspective>
	
		<inkscape:perspective  sodipodi:type="inkscape:persp3d" inkscape:vp_x="0 : 151.79668 : 1" inkscape:vp_y="0 : 1000 : 0" inkscape:vp_z="177.85829 : 151.79668 : 1" id="perspective3730" inkscape:persp3d-origin="88.929146 : 101.19778 : 1">
		</inkscape:perspective>
</defs>
<g>
	
		<path id="path1061_1_" sodipodi:end="6.2864724" sodipodi:cy="388.72183" sodipodi:rx="11.516535" sodipodi:start="0.014158001" sodipodi:open="true" sodipodi:cx="346.93561" sodipodi:ry="11.516535" sodipodi:type="arc" fill="#FFFFFF" d="
		M325.578,145.398c-0.191,11.207-11.293,20.162-24.795,20.003c-13.501-0.159-24.292-9.373-24.1-20.58
		c0.192-11.207,11.293-20.162,24.795-20.003c13.397,0.158,24.146,9.237,24.103,20.359"/>
	<path fill="#FFFFFF" d="M301.136,166.028c-0.12,0-0.239,0-0.36-0.002c-7.459-0.088-14.435-2.913-19.134-7.751
		c-3.683-3.792-5.666-8.573-5.582-13.464c0.196-11.431,11.408-20.619,25.067-20.619c0.12,0,0.239,0,0.36,0.002
		c13.677,0.161,24.766,9.576,24.72,20.986c0,0.04-0.004,0.079-0.011,0.116c0.006,0.037,0.009,0.074,0.008,0.113
		C326.008,156.84,314.796,166.028,301.136,166.028z M301.126,125.442c-12.983,0-23.633,8.64-23.817,19.391
		c-0.078,4.556,1.779,9.021,5.229,12.572c4.47,4.601,11.123,7.288,18.254,7.372c13.13,0.201,23.978-8.542,24.162-19.389
		c0.001-0.037,0.005-0.073,0.012-0.108c-0.006-0.034-0.009-0.069-0.009-0.104c0.043-10.727-10.492-19.579-23.484-19.731
		C301.355,125.442,301.24,125.442,301.126,125.442z"/>
</g>
<path fill="#FFFFFF" d="M180.104,548.643c-2.066,0-4.15-0.645-5.931-1.979c-4.378-3.279-5.268-9.487-1.988-13.865
	c53.592-71.537,82.619-162.873,97.532-226.898c17.197-73.832,20.92-131.948,20.92-142.377v-0.92c0-5.47,4.436-9.905,9.904-9.905
	s9.904,4.435,9.904,9.905v0.92c0,10.881-3.814,71.217-21.438,146.872c-15.344,65.875-45.316,159.992-100.971,234.281
	C186.093,547.271,183.117,548.643,180.104,548.643z"/>
<path fill="#FFFFFF" d="M420.688,548.183c-3.014,0-5.988-1.368-7.935-3.967c-55.654-74.289-85.627-168.407-100.971-234.28
	c-17.622-75.656-21.438-135.992-21.438-146.873v-0.92c0-5.47,4.435-9.905,9.905-9.905c5.47,0,9.904,4.435,9.904,9.905v0.92
	c0,10.43,3.723,68.546,20.92,142.378c14.913,64.024,43.939,155.36,97.531,226.897c3.28,4.378,2.391,10.586-1.987,13.865
	C424.838,547.538,422.753,548.183,420.688,548.183z"/>
<path fill="#FFFFFF" d="M411.063,270.051c-2.101,0-4.15-1.059-5.33-2.979c-1.808-2.941-0.888-6.79,2.055-8.596
	c10.114-6.213,19.374-13.519,27.521-21.715c26.603-26.757,40.13-61.157,38.093-96.862c-2.076-36.378-19.971-69.801-50.386-94.11
	c-2.694-2.155-3.135-6.087-0.979-8.784c2.154-2.696,6.087-3.136,8.784-0.98c33.224,26.555,52.776,63.192,55.059,103.162
	c2.243,39.296-12.568,77.078-41.706,106.386c-8.845,8.898-18.886,16.822-29.845,23.553
	C413.308,269.752,412.178,270.051,411.063,270.051z"/>
<path fill="#FFFFFF" d="M373.845,230.809c-2.221,0-4.371-1.187-5.502-3.276c-1.643-3.036-0.514-6.828,2.521-8.471
	c9.73-5.267,18.23-11.98,25.265-19.953c15.227-17.259,22.218-38.773,19.688-60.58c-2.631-22.667-15.111-42.975-35.146-57.183
	c-2.814-1.997-3.479-5.898-1.481-8.713c1.997-2.817,5.896-3.479,8.713-1.482c22.964,16.287,37.286,39.704,40.33,65.938
	c2.943,25.375-5.13,50.337-22.73,70.289c-8.009,9.079-17.66,16.708-28.688,22.676C375.868,230.565,374.849,230.809,373.845,230.809z
	"/>
<path fill="#FFFFFF" d="M348.033,186.966c-2.291,0-4.497-1.264-5.593-3.452c-1.547-3.086-0.298-6.841,2.788-8.387
	c4.585-2.296,8.577-5.212,11.868-8.666c6.867-7.206,10.08-16.131,9.047-25.132c-1.11-9.681-6.893-18.406-16.279-24.57
	c-2.886-1.894-3.688-5.769-1.795-8.654c1.895-2.885,5.771-3.689,8.653-1.794c12.542,8.234,20.299,20.164,21.839,33.593
	c1.464,12.749-2.946,25.243-12.415,35.179c-4.288,4.5-9.442,8.274-15.319,11.219C349.929,186.752,348.974,186.966,348.033,186.966z"
	/>
<path fill="#FFFFFF" d="M194.844,270.267c-1.116,0-2.245-0.298-3.265-0.925c-10.956-6.729-20.997-14.653-29.845-23.553
	c-29.137-29.308-43.948-67.091-41.706-106.387c2.281-39.969,21.835-76.606,55.059-103.161c2.696-2.155,6.628-1.716,8.784,0.98
	c2.155,2.696,1.716,6.629-0.98,8.784c-30.414,24.309-48.308,57.731-50.384,94.109c-2.038,35.705,11.49,70.105,38.091,96.862
	c8.15,8.198,17.41,15.504,27.523,21.715c2.941,1.806,3.861,5.655,2.054,8.596C198.995,269.208,196.944,270.267,194.844,270.267z"/>
<path fill="#FFFFFF" d="M232.063,231.024c-1.005,0-2.023-0.243-2.969-0.755c-11.028-5.968-20.68-13.598-28.688-22.676
	c-17.602-19.952-25.674-44.915-22.73-70.29c3.044-26.234,17.366-49.651,40.33-65.938c2.816-1.997,6.716-1.333,8.713,1.482
	c1.997,2.815,1.333,6.716-1.482,8.713c-20.033,14.208-32.514,34.517-35.144,57.183c-2.53,21.807,4.462,43.321,19.688,60.581
	c7.033,7.973,15.534,14.686,25.265,19.953c3.036,1.643,4.165,5.435,2.521,8.471C236.434,229.838,234.283,231.024,232.063,231.024z"
	/>
<path fill="#FFFFFF" d="M257.883,187.166c-0.941,0-1.896-0.213-2.794-0.664c-5.876-2.944-11.03-6.718-15.319-11.218
	c-9.469-9.937-13.878-22.43-12.416-35.179c1.541-13.429,9.297-25.36,21.839-33.594c2.885-1.896,6.759-1.091,8.654,1.794
	c1.895,2.885,1.091,6.76-1.794,8.654c-9.388,6.164-15.17,14.89-16.281,24.571c-1.033,9,2.18,17.926,9.046,25.131
	c3.292,3.454,7.285,6.37,11.869,8.667c3.086,1.546,4.334,5.301,2.788,8.387C262.38,185.902,260.174,187.166,257.883,187.166z"/>
<path fill="#FFFFFF" d="M257.346,384.318c-1.685,0-3.364-0.676-4.599-2.01c-2.351-2.539-2.197-6.502,0.342-8.854l68.504-63.413
	c2.54-2.351,6.504-2.196,8.854,0.342c2.351,2.539,2.196,6.503-0.342,8.854L261.6,382.65
	C260.395,383.768,258.868,384.318,257.346,384.318z"/>
<path fill="#FFFFFF" d="M343.879,384.318c-1.521,0-3.049-0.551-4.254-1.668l-68.504-63.412c-2.539-2.352-2.692-6.314-0.342-8.854
	c2.35-2.54,6.313-2.692,8.854-0.342l68.504,63.413c2.539,2.352,2.692,6.314,0.342,8.854
	C347.244,383.645,345.564,384.318,343.879,384.318z"/>
<path fill="#FFFFFF" d="M378.098,484.846c-1.874,0-3.753-0.679-5.235-2.053L265.63,383.531c-3.125-2.893-3.313-7.771-0.42-10.896
	c2.894-3.125,7.771-3.313,10.897-0.42l107.231,99.262c3.125,2.894,3.313,7.771,0.42,10.896
	C382.238,484.015,380.171,484.846,378.098,484.846z"/>
<path fill="#FFFFFF" d="M222.784,484.846c-2.074,0-4.141-0.831-5.661-2.473c-2.893-3.125-2.705-8.004,0.42-10.896l107.231-99.262
	c3.125-2.896,8.004-2.705,10.896,0.42c2.895,3.125,2.705,8.004-0.42,10.896l-107.23,99.262
	C226.537,484.167,224.657,484.846,222.784,484.846z"/>
</svg>
