<?xml version="1.0" encoding="utf-8"?>
<!-- Generator: Adobe Illustrator 16.2.0, SVG Export Plug-In . SVG Version: 6.00 Build 0)  -->
<!DOCTYPE svg PUBLIC "-//W3C//DTD SVG 1.1//EN" "http://www.w3.org/Graphics/SVG/1.1/DTD/svg11.dtd">
<svg version="1.1" id="svg2" xmlns:svg="http://www.w3.org/2000/svg"
	 xmlns="http://www.w3.org/2000/svg" xmlns:xlink="http://www.w3.org/1999/xlink" x="0px" y="0px" width="500px" height="500px"
	 viewBox="0 0 500 500" enable-background="new 0 0 500 500" xml:space="preserve">
<title  id="title3840">Hotel is near mountain biking</title>
<path id="path13" fill="none" stroke="#000000" stroke-width="18" d="M243.771,37.5H42.004c-9.579,0-17.344,7.765-17.344,17.344
	v403.533c0,9.578,7.766,17.346,17.344,17.346h403.534c9.579,0,17.345-7.768,17.345-17.346V54.844
	c0-9.579-7.766-17.344-17.345-17.344H243.771z"/>
<g>
	
		<path id="path1061_1_" sodipodi:end="6.2864724" sodipodi:cy="388.72183" sodipodi:rx="11.516535" sodipodi:start="0.014158001" sodipodi:open="true" sodipodi:cx="346.93561" sodipodi:ry="11.516535" sodipodi:type="arc" d="
		M264.527,141.598c-0.15,8.795-8.862,15.823-19.458,15.698s-19.064-7.356-18.914-16.151c0.151-8.795,8.863-15.823,19.459-15.698
		c10.515,0.124,18.951,7.25,18.915,15.978"/>
	<path d="M245.345,157.789c-0.094,0-0.188,0-0.283-0.001c-5.854-0.069-11.328-2.286-15.017-6.083
		c-2.89-2.976-4.446-6.729-4.38-10.567c0.153-8.971,8.953-16.182,19.673-16.182c0.094,0,0.188,0,0.283,0.001
		c10.733,0.126,19.436,7.515,19.4,16.47c0,0.031-0.003,0.062-0.009,0.091c0.005,0.029,0.008,0.058,0.006,0.088
		C264.865,150.578,256.066,157.789,245.345,157.789z M245.338,125.937c-10.189,0-18.547,6.78-18.692,15.218
		c-0.062,3.576,1.396,7.08,4.103,9.866c3.508,3.611,8.729,5.72,14.326,5.786c10.304,0.157,18.818-6.704,18.962-15.216
		c0.001-0.029,0.004-0.057,0.01-0.085c-0.005-0.027-0.008-0.054-0.008-0.082c0.034-8.418-8.234-15.365-18.431-15.485
		C245.519,125.937,245.427,125.937,245.338,125.937z"/>
</g>
<path d="M150.36,458.064c-1.622,0-3.257-0.506-4.654-1.553c-3.436-2.574-4.135-7.445-1.561-10.883
	c42.059-56.141,64.839-127.822,76.543-178.068c13.497-57.944,16.418-103.554,16.418-111.739V155.1c0-4.293,3.48-7.773,7.773-7.773
	s7.773,3.48,7.773,7.773v0.722c0,8.54-2.994,55.892-16.823,115.266c-12.042,51.697-35.564,125.561-79.242,183.863
	C155.06,456.988,152.725,458.064,150.36,458.064z"/>
<path d="M339.17,457.703c-2.365,0-4.701-1.074-6.227-3.113c-43.678-58.303-67.201-132.166-79.242-183.863
	c-13.83-59.375-16.824-106.726-16.824-115.266v-0.722c0-4.293,3.48-7.773,7.773-7.773c4.292,0,7.773,3.48,7.773,7.773v0.722
	c0,8.185,2.921,53.795,16.418,111.738c11.703,50.246,34.484,121.928,76.543,178.07c2.574,3.436,1.875,8.307-1.561,10.881
	C342.428,457.197,340.791,457.703,339.17,457.703z"/>
<path d="M331.615,239.425c-1.648,0-3.258-0.83-4.184-2.338c-1.418-2.308-0.695-5.329,1.613-6.746
	c7.938-4.876,15.205-10.61,21.598-17.042c20.877-20.999,31.494-47.996,29.895-76.017c-1.629-28.55-15.672-54.78-39.541-73.858
	c-2.115-1.691-2.461-4.777-0.77-6.894c1.691-2.116,4.777-2.461,6.895-0.769c26.074,20.841,41.42,49.593,43.209,80.961
	c1.762,30.84-9.863,60.491-32.73,83.492c-6.941,6.982-14.82,13.202-23.422,18.484C333.377,239.191,332.49,239.425,331.615,239.425z"
	/>
<path d="M302.408,208.628c-1.744,0-3.432-0.932-4.318-2.571c-1.289-2.383-0.404-5.359,1.979-6.648
	c7.637-4.133,14.309-9.401,19.828-15.659c11.949-13.545,17.436-30.429,15.451-47.543c-2.064-17.789-11.859-33.727-27.582-44.877
	c-2.209-1.567-2.73-4.628-1.164-6.838c1.568-2.21,4.629-2.73,6.838-1.163c18.021,12.781,29.262,31.159,31.65,51.748
	c2.313,19.914-4.023,39.504-17.838,55.163c-6.285,7.125-13.859,13.113-22.516,17.796
	C303.996,208.437,303.195,208.628,302.408,208.628z"/>
<path d="M282.15,174.22c-1.798,0-3.529-0.992-4.389-2.709c-1.214-2.422-0.233-5.369,2.188-6.582c3.598-1.802,6.731-4.09,9.313-6.801
	c5.391-5.655,7.912-12.66,7.1-19.724c-0.871-7.597-5.408-14.445-12.775-19.282c-2.266-1.486-2.895-4.527-1.409-6.792
	c1.487-2.264,4.528-2.895,6.792-1.408c9.844,6.462,15.93,15.825,17.139,26.364c1.148,10.005-2.313,19.811-9.744,27.609
	c-3.365,3.532-7.41,6.494-12.021,8.804C283.639,174.053,282.889,174.22,282.15,174.22z"/>
<path d="M161.927,239.595c-0.875,0-1.761-0.234-2.562-0.727c-8.598-5.28-16.479-11.5-23.423-18.484
	c-22.867-23.001-34.49-52.653-32.73-83.493c1.791-31.368,17.136-60.12,43.21-80.96c2.116-1.691,5.202-1.347,6.894,0.769
	c1.691,2.116,1.347,5.203-0.769,6.894c-23.869,19.078-37.912,45.307-39.542,73.857c-1.599,28.021,9.017,55.019,29.894,76.018
	c6.396,6.434,13.664,12.168,21.6,17.042c2.308,1.418,3.03,4.438,1.612,6.746C165.186,238.764,163.576,239.595,161.927,239.595z"/>
<path d="M191.137,208.797c-0.789,0-1.588-0.19-2.331-0.593c-8.654-4.684-16.229-10.671-22.515-17.796
	c-13.814-15.658-20.149-35.25-17.839-55.163c2.389-20.588,13.629-38.966,31.651-51.748c2.21-1.567,5.271-1.046,6.838,1.164
	c1.567,2.209,1.046,5.271-1.164,6.838c-15.722,11.151-25.517,27.088-27.581,44.877c-1.985,17.114,3.502,33.999,15.451,47.543
	c5.52,6.257,12.191,11.526,19.828,15.659c2.383,1.29,3.269,4.265,1.979,6.648C194.567,207.867,192.879,208.797,191.137,208.797z"/>
<path d="M211.401,174.377c-0.738,0-1.488-0.167-2.193-0.521c-4.612-2.31-8.657-5.272-12.022-8.804
	c-7.431-7.798-10.892-17.603-9.744-27.609c1.209-10.539,7.296-19.902,17.139-26.364c2.264-1.488,5.305-0.856,6.792,1.408
	s0.856,5.305-1.408,6.792c-7.368,4.837-11.905,11.686-12.777,19.283c-0.811,7.063,1.711,14.068,7.1,19.723
	c2.583,2.711,5.717,4.999,9.315,6.801c2.422,1.213,3.402,4.16,2.188,6.582C214.93,173.385,213.199,174.377,211.401,174.377z"/>
<path d="M210.979,329.102c-1.322,0-2.64-0.529-3.609-1.576c-1.845-1.992-1.725-5.104,0.268-6.947l53.763-49.768
	c1.993-1.844,5.104-1.725,6.947,0.27c1.846,1.992,1.725,5.104-0.268,6.947l-53.762,49.768
	C213.372,328.67,212.174,329.102,210.979,329.102z"/>
<path d="M278.891,329.102c-1.195,0-2.393-0.432-3.339-1.307l-53.762-49.768c-1.993-1.844-2.113-4.955-0.269-6.947
	c1.845-1.994,4.955-2.115,6.948-0.27l53.763,49.768c1.992,1.844,2.112,4.955,0.268,6.947
	C281.531,328.572,280.213,329.102,278.891,329.102z"/>
<path d="M305.744,407.996c-1.471,0-2.945-0.533-4.109-1.611l-84.154-77.9c-2.453-2.27-2.601-6.1-0.33-8.551
	c2.271-2.453,6.099-2.602,8.552-0.33l84.155,77.9c2.453,2.27,2.602,6.1,0.33,8.553C308.994,407.344,307.373,407.996,305.744,407.996
	z"/>
<path d="M183.855,407.996c-1.628,0-3.25-0.652-4.443-1.939c-2.271-2.453-2.123-6.283,0.33-8.553l84.154-77.9
	c2.453-2.271,6.281-2.123,8.553,0.33c2.27,2.451,2.122,6.281-0.33,8.551l-84.155,77.9
	C186.8,407.463,185.325,407.996,183.855,407.996z"/>
</svg>
