<?xml version="1.0" encoding="utf-8"?>
<!-- Generator: Adobe Illustrator 16.2.0, SVG Export Plug-In . SVG Version: 6.00 Build 0)  -->
<!DOCTYPE svg PUBLIC "-//W3C//DTD SVG 1.1//EN" "http://www.w3.org/Graphics/SVG/1.1/DTD/svg11.dtd">
<svg version="1.1" id="svg2" xmlns:svg="http://www.w3.org/2000/svg"
	 xmlns="http://www.w3.org/2000/svg" xmlns:xlink="http://www.w3.org/1999/xlink" x="0px" y="0px" width="500px" height="500px"
	 viewBox="0 0 500 500" enable-background="new 0 0 500 500" xml:space="preserve">
<title  id="title3840">Hotel is near mountain biking</title>
<path id="path13" fill="none" stroke="#000000" stroke-width="18" d="M243.771,37.5H42.004c-9.579,0-17.344,7.765-17.344,17.344
	v403.533c0,9.578,7.766,17.346,17.344,17.346h403.534c9.579,0,17.345-7.768,17.345-17.346V54.844
	c0-9.579-7.766-17.344-17.345-17.344H243.771z"/>
<g>
	<g>
		
			<path id="path1061_1_" sodipodi:end="6.2864724" sodipodi:cy="388.72183" sodipodi:rx="11.516535" sodipodi:start="0.014158001" sodipodi:open="true" sodipodi:cx="346.93561" sodipodi:ry="11.516535" sodipodi:type="arc" d="
			M263.201,142.286c-0.15,8.786-8.854,15.808-19.44,15.683c-10.585-0.125-19.045-7.348-18.895-16.135
			c0.151-8.786,8.854-15.807,19.44-15.683c10.504,0.124,18.932,7.242,18.896,15.962L263.201,142.286z"/>
		<path d="M244.038,158.46c-0.094,0-0.188,0-0.282-0.001c-5.848-0.069-11.317-2.284-15.002-6.077
			c-2.888-2.973-4.442-6.721-4.376-10.556c0.153-8.962,8.944-16.166,19.653-16.166c0.094,0,0.188,0,0.283,0.001
			c10.723,0.126,19.417,7.508,19.38,16.454c0,0.031-0.003,0.062-0.008,0.091c0.005,0.029,0.007,0.058,0.006,0.089
			C263.538,151.257,254.748,158.46,244.038,158.46z M244.03,126.64c-10.179,0-18.528,6.774-18.673,15.203
			c-0.062,3.572,1.395,7.073,4.1,9.857c3.504,3.607,8.721,5.714,14.312,5.779c10.294,0.158,18.799-6.697,18.943-15.201
			c0.001-0.029,0.004-0.058,0.01-0.085c-0.005-0.026-0.007-0.054-0.007-0.082c0.033-8.41-8.227-15.35-18.413-15.469
			C244.21,126.64,244.12,126.64,244.03,126.64z"/>
	</g>
	<path d="M149.146,458.438c-1.62,0-3.253-0.505-4.65-1.551c-3.433-2.571-4.13-7.438-1.558-10.871
		c42.017-56.086,64.775-127.696,76.467-177.893c13.483-57.886,16.402-103.451,16.402-111.627v-0.721
		c0-4.289,3.478-7.766,7.765-7.766s7.765,3.477,7.765,7.766v0.721c0,8.531-2.991,55.836-16.808,115.15
		C222.5,323.295,199,397.085,155.366,455.328C153.842,457.364,151.508,458.438,149.146,458.438z"/>
	<path d="M337.769,458.078c-2.362,0-4.694-1.072-6.221-3.11c-43.634-58.243-67.133-132.034-79.163-183.681
		c-13.816-59.316-16.807-106.621-16.807-115.151v-0.721c0-4.289,3.477-7.766,7.766-7.766s7.765,3.477,7.765,7.766v0.721
		c0,8.178,2.919,53.742,16.402,111.628c11.691,50.197,34.449,121.806,76.466,177.894c2.572,3.431,1.875,8.299-1.558,10.869
		C341.023,457.573,339.389,458.078,337.769,458.078z"/>
	<path d="M330.223,240.017c-1.646,0-3.254-0.83-4.179-2.336c-1.417-2.305-0.696-5.323,1.611-6.739
		c7.929-4.871,15.189-10.599,21.576-17.025c20.856-20.978,31.463-47.948,29.865-75.941c-1.627-28.521-15.656-54.726-39.503-73.785
		c-2.113-1.689-2.458-4.772-0.768-6.887c1.689-2.114,4.772-2.459,6.888-0.769c26.048,20.82,41.378,49.544,43.167,80.881
		c1.759,30.809-9.854,60.431-32.699,83.409c-6.935,6.976-14.807,13.188-23.398,18.466
		C331.983,239.782,331.098,240.017,330.223,240.017z"/>
	<path d="M301.043,209.25c-1.74,0-3.427-0.93-4.313-2.568c-1.288-2.38-0.403-5.354,1.976-6.642
		c7.63-4.129,14.293-9.393,19.809-15.644c11.938-13.531,17.419-30.398,15.437-47.496c-2.063-17.771-11.848-33.693-27.555-44.833
		c-2.207-1.565-2.728-4.624-1.162-6.831c1.565-2.208,4.623-2.728,6.831-1.162c18.004,12.77,29.233,31.129,31.62,51.697
		c2.308,19.895-4.022,39.465-17.821,55.108c-6.279,7.118-13.846,13.1-22.492,17.778C302.63,209.059,301.831,209.25,301.043,209.25z"
		/>
	<path d="M280.807,174.876c-1.796,0-3.526-0.99-4.385-2.706c-1.213-2.419-0.233-5.364,2.186-6.576
		c3.595-1.8,6.726-4.086,9.305-6.794c5.385-5.649,7.903-12.646,7.093-19.704c-0.87-7.59-5.403-14.431-12.763-19.263
		c-2.263-1.484-2.892-4.523-1.407-6.785c1.485-2.261,4.523-2.892,6.785-1.406c9.832,6.456,15.914,15.809,17.121,26.337
		c1.147,9.996-2.31,19.792-9.733,27.582c-3.362,3.528-7.403,6.487-12.011,8.795C282.293,174.708,281.544,174.876,280.807,174.876z"
		/>
	<path d="M160.703,240.187c-0.875,0-1.76-0.234-2.56-0.726c-8.59-5.275-16.462-11.488-23.399-18.465
		c-22.844-22.979-34.457-52.601-32.699-83.41c1.789-31.336,17.12-60.061,43.168-80.88c2.114-1.689,5.196-1.345,6.887,0.769
		c1.689,2.114,1.345,5.197-0.769,6.887c-23.845,19.059-37.875,45.262-39.502,73.784c-1.598,27.993,9.009,54.964,29.865,75.941
		c6.389,6.428,13.649,12.156,21.579,17.025c2.305,1.417,3.027,4.434,1.61,6.74C163.957,239.356,162.349,240.187,160.703,240.187z"/>
	<path d="M189.883,209.418c-0.788,0-1.586-0.19-2.328-0.592c-8.646-4.679-16.213-10.661-22.492-17.778
		c-13.8-15.643-20.129-35.214-17.821-55.109c2.387-20.568,13.615-38.928,31.62-51.697c2.208-1.565,5.266-1.045,6.832,1.162
		c1.565,2.207,1.045,5.265-1.162,6.831c-15.707,11.14-25.492,27.063-27.554,44.833c-1.983,17.097,3.499,33.965,15.436,47.497
		c5.514,6.251,12.179,11.514,19.808,15.643c2.38,1.289,3.265,4.262,1.976,6.642C193.31,208.489,191.624,209.418,189.883,209.418z"/>
	<path d="M210.126,175.033c-0.737,0-1.486-0.167-2.19-0.521c-4.607-2.308-8.648-5.267-12.01-8.795
		c-7.424-7.791-10.881-17.585-9.734-27.581c1.208-10.529,7.289-19.883,17.122-26.338c2.262-1.486,5.3-0.855,6.785,1.407
		c1.486,2.262,0.855,5.3-1.407,6.785c-7.36,4.833-11.894,11.674-12.765,19.264c-0.81,7.056,1.709,14.055,7.092,19.704
		c2.581,2.708,5.711,4.994,9.306,6.795c2.419,1.212,3.398,4.156,2.186,6.575C213.653,174.042,211.923,175.033,210.126,175.033z"/>
	<path d="M209.706,329.605c-1.321,0-2.638-0.53-3.606-1.576c-1.843-1.99-1.723-5.098,0.268-6.941l53.708-49.717
		c1.992-1.844,5.1-1.723,6.942,0.268s1.722,5.099-0.268,6.941l-53.71,49.717C212.096,329.174,210.899,329.605,209.706,329.605z"/>
	<path d="M277.55,329.605c-1.193,0-2.391-0.432-3.335-1.309l-53.709-49.717c-1.991-1.843-2.11-4.95-0.269-6.941
		c1.843-1.991,4.95-2.111,6.942-0.268l53.708,49.717c1.99,1.844,2.11,4.951,0.269,6.941
		C280.188,329.077,278.871,329.605,277.55,329.605z"/>
	<path d="M304.378,408.421c-1.47,0-2.942-0.532-4.104-1.61L216.2,328.988c-2.45-2.269-2.597-6.093-0.329-8.543
		c2.269-2.451,6.092-2.598,8.543-0.33l84.072,77.824c2.449,2.268,2.598,6.093,0.329,8.543
		C307.624,407.77,306.003,408.421,304.378,408.421z"/>
	<path d="M182.608,408.421c-1.626,0-3.247-0.651-4.438-1.938c-2.268-2.45-2.121-6.275,0.33-8.543l84.072-77.824
		c2.45-2.271,6.275-2.121,8.542,0.33c2.27,2.45,2.121,6.274-0.328,8.543l-84.072,77.822
		C185.551,407.889,184.077,408.421,182.608,408.421z"/>
</g>
</svg>
