<?xml version="1.0" encoding="utf-8"?>
<!-- Generator: Adobe Illustrator 16.2.0, SVG Export Plug-In . SVG Version: 6.00 Build 0)  -->
<!DOCTYPE svg PUBLIC "-//W3C//DTD SVG 1.1//EN" "http://www.w3.org/Graphics/SVG/1.1/DTD/svg11.dtd">
<svg version="1.1" id="svg2" xmlns:svg="http://www.w3.org/2000/svg"
	 xmlns="http://www.w3.org/2000/svg" xmlns:xlink="http://www.w3.org/1999/xlink" x="0px" y="0px" width="500px" height="500px"
	 viewBox="0 0 500 500" enable-background="new 0 0 500 500" xml:space="preserve">
<title  id="title3840">Hotel is near mountain biking</title>
<path id="path13" fill="none" stroke="#000000" stroke-width="18" d="M243.771,37.5H42.004c-9.579,0-17.344,7.765-17.344,17.344
	v403.533c0,9.578,7.766,17.346,17.344,17.346h403.534c9.579,0,17.345-7.768,17.345-17.346V54.844
	c0-9.579-7.766-17.344-17.345-17.344H243.771z"/>
<g>
	<g>
		<g>
			<polygon points="432.845,454.237 414.223,454.381 432.904,454.35 			"/>
			<path d="M72.702,438.317l19.021,10.067l156.574-295.792l155.949,295.776l19.928-10.508l-0.092-0.174L261.056,128.488
				l30.522-57.661l-19.912-10.541l-23.331,44.076l-24.32-46.126l-19.929,10.508l30.869,58.546
				c-13.283,27.496-104.154,197.396-165.31,311.042l-8.951,16.635l80.907-0.134l-77.917-0.601L72.702,438.317z"/>
			<path d="M323.745,432l-150.475,0.249c-4.835,9.603-7.985,15.626-8.525,16.655l-3.094,5.896l173.688-0.288l-2.942-5.607
				C331.852,447.866,328.652,441.749,323.745,432z"/>
			<path d="M433.457,454.232l-9.375-16.545l0.092,0.174l-19.928,10.508L248.297,152.593L91.723,448.385l-19.021-10.067
				l-9.018,15.915l77.917,0.601l19.951,0.153l0.098-0.187l3.094-5.896c0.54-1.029,3.69-7.053,8.525-16.655
				c17.401-34.557,56.69-115.605,75.3-178.33c18.564,62.572,57.71,143.384,75.175,178.081c4.907,9.749,8.106,15.866,8.651,16.904
				l2.942,5.607l0.249,0.475l78.635-0.605l18.622-0.144L433.457,454.232z"/>
		</g>
	</g>
</g>
</svg>
