<?xml version="1.0" encoding="utf-8"?>
<!-- Generator: Adobe Illustrator 16.2.0, SVG Export Plug-In . SVG Version: 6.00 Build 0)  -->
<!DOCTYPE svg PUBLIC "-//W3C//DTD SVG 1.1//EN" "http://www.w3.org/Graphics/SVG/1.1/DTD/svg11.dtd">
<svg version="1.1" id="svg2" xmlns:svg="http://www.w3.org/2000/svg"
	 xmlns="http://www.w3.org/2000/svg" xmlns:xlink="http://www.w3.org/1999/xlink" x="0px" y="0px" width="500px" height="500px"
	 viewBox="0 0 500 500" enable-background="new 0 0 500 500" xml:space="preserve">
<title  id="title3840">Hotel is near mountain biking</title>
<path id="path13" fill="none" stroke="#000000" stroke-width="18" d="M243.771,37.5H42.004c-9.579,0-17.344,7.765-17.344,17.344
	v403.533c0,9.578,7.766,17.346,17.344,17.346h403.534c9.579,0,17.345-7.768,17.345-17.346V54.844
	c0-9.579-7.766-17.344-17.345-17.344H243.771z"/>
<path d="M246.52,458.123c-51.86,0-100.616-20.975-137.287-59.063c-36.67-38.087-56.866-88.726-56.866-142.589
	c0-53.864,20.195-104.502,56.866-142.59c36.671-38.087,85.427-59.063,137.287-59.063s100.615,20.976,137.286,59.063
	c36.672,38.087,56.866,88.726,56.866,142.59c0,53.863-20.194,104.502-56.866,142.589C347.135,437.148,298.38,458.123,246.52,458.123
	z M246.52,76.478c-95.558,0-173.299,80.744-173.299,179.993s77.742,179.994,173.299,179.994s173.3-80.745,173.3-179.994
	S342.077,76.478,246.52,76.478z"/>
<rect x="218.603" y="109.225" width="57.818" height="294.493"/>
<rect x="105.741" y="226.445" width="283.54" height="60.053"/>
</svg>
