<?xml version="1.0" encoding="utf-8"?>
<!-- Generator: Adobe Illustrator 16.2.0, SVG Export Plug-In . SVG Version: 6.00 Build 0)  -->
<!DOCTYPE svg PUBLIC "-//W3C//DTD SVG 1.1//EN" "http://www.w3.org/Graphics/SVG/1.1/DTD/svg11.dtd">
<svg version="1.1" id="svg2" xmlns:svg="http://www.w3.org/2000/svg"
	 xmlns="http://www.w3.org/2000/svg" xmlns:xlink="http://www.w3.org/1999/xlink" x="0px" y="0px" width="500px" height="500px"
	 viewBox="0 0 500 500" enable-background="new 0 0 500 500" xml:space="preserve">
<title  id="title3840">Hotel is near mountain biking</title>
<path id="path13" fill="none" stroke="#000000" stroke-width="18" d="M243.771,37.5H42.004c-9.579,0-17.344,7.765-17.344,17.344
	v403.533c0,9.578,7.766,17.346,17.344,17.346h403.534c9.579,0,17.345-7.768,17.345-17.346V54.844
	c0-9.579-7.766-17.344-17.345-17.344H243.771z"/>
<path d="M216.765,102.532c1.26,1.322,1.786,3.302,1.352,5.077l-7.776,31.572l-0.094,0.466c-1.417,8.686-4.556,16.062-4.821,22.003
	c68.951,67.612,137.89,135.201,206.831,202.825c0.068,0.061,0.121,0.128,0.188,0.188c13.496,12.237,12.025,33.781-0.537,45.753
	l0.024,0.022c-0.067,0.076-0.144,0.135-0.209,0.209c-0.057,0.053-0.106,0.11-0.164,0.161l-0.023-0.022
	c-11.786,12.668-32.769,13.604-45.263,1.119c-0.056-0.053-0.111-0.108-0.163-0.162c-47.536-51.489-94.139-103.813-141.264-155.56
	c-0.006-0.009-0.018-0.018-0.025-0.022c-18.487-19.95-36.167-40.736-54.738-59.817c-17.421,2.022-35.291,5.998-53.414,8.755
	c-2.054,0.323-4.252-0.644-5.401-2.375l-44.823-67.22c-1.399-2.113-1.058-5.207,0.769-6.963l16.252-15.692
	c2.045-1.972,5.689-1.928,7.683,0.093c13.062,13.097,25.376,26.958,38.303,39.14c8.179-1.667,16.514-3.852,24.285-6.495
	c2.954-7.665,5.402-16.019,7.335-24.099c-12.116-13.717-25.791-26.777-38.745-40.608c-1.947-2.067-1.859-5.712,0.187-7.684
	l17.766-17.206c1.791-1.725,4.813-1.983,6.869-0.583l68.71,46.357C216.187,101.986,216.492,102.244,216.765,102.532L216.765,102.532
	z"/>
<path id="path101" d="M164.685,301.302l-17.646,18.532l25.303,15.693c0.127,11.941,0.253,22.135,0.178,31.159
	c-0.076,8.923,0.659,17.721-0.532,22.283c-1.294,4.488-4.387,4.413-6.946,4.464c-2.661-0.05-6.794-1.369-8.392-4.642
	c-1.648-3.371-0.711-8.645-0.888-15.337c-0.178-6.77-0.178-14.982,0-24.922c-8.013-4.007-14.806-7.656-20.486-11.055
	c-5.755-3.447-10.599-5.982-13.538-9.279c-2.916-3.373-3.93-7.099-3.93-10.496c-0.076-3.396,1.115-6.109,3.574-9.813
	c2.459-3.878,6.338-7.834,11.054-12.828c4.716-5.045,12.372-13.387,16.911-16.91c4.436-3.601,6.667-4.311,9.813-4.283
	c3.169-0.052,6.107,2.28,8.721,4.461c2.483,2.205,3.523,4.233,6.235,8.723c2.662,4.41,5.807,10.189,9.636,17.645
	c7.275-0.711,12.727-0.711,16.732,0c3.903,0.635,6.16,1.902,6.769,4.082c0.583,2.129,0.051,7.1-3.549,8.746
	c-3.778,1.598-14.021,0.659-18.711,0.71c-4.715,0.024-7.149,0.279-9.456-0.71c-2.281-1.115-2.714-3.017-4.438-5.705
	C169.249,309.111,167.145,305.638,164.685,301.302L164.685,301.302z"/>
<path id="path103" d="M182.989,249.986c8.453,0,15.313,6.86,15.313,15.313c0,8.451-6.859,15.313-15.313,15.313
	c-8.453,0-15.313-6.859-15.313-15.313S174.537,249.986,182.989,249.986"/>
<path id="path105" d="M108.173,338.826c23.65,0,42.847,19.193,42.847,42.845s-19.195,42.848-42.847,42.848
	c-23.652,0-42.846-19.195-42.846-42.848C65.327,358.02,84.521,338.826,108.173,338.826z M108.173,347.09
	c19.075,0,34.557,15.479,34.557,34.554c0,19.075-15.48,34.557-34.557,34.557s-34.557-15.48-34.557-34.557
	C73.616,362.57,89.098,347.09,108.173,347.09z"/>
<path id="path107" d="M220.232,338.826c23.651,0,42.849,19.193,42.849,42.845s-19.196,42.848-42.849,42.848
	c-23.648,0-42.846-19.195-42.846-42.848C177.387,358.02,196.583,338.826,220.232,338.826z M220.232,347.09
	c19.075,0,34.556,15.479,34.556,34.554c0,19.075-15.479,34.557-34.556,34.557c-19.074,0-34.557-15.48-34.557-34.557
	C185.678,362.57,201.158,347.09,220.232,347.09z"/>
</svg>
